HIERARCHY
ROOT ui
{
	 OFFSET 0 0 0
	 CHANNELS 3 XPosition YPosition Z Position
	 EndSite
	 {
	 OFFSET 0 -1 0
	 }
}
ROOT li
{
	 OFFSET 0 0 0
	 CHANNELS 3 XPosition YPosition Z Position
	 EndSite
	 {
	 OFFSET 0 -1 0
	 }
}
ROOT ul
{
	 OFFSET 0 0 0
	 CHANNELS 3 XPosition YPosition Z Position
	 EndSite
	 {
	 OFFSET 0 -1 0
	 }
}
ROOT ll
{
	 OFFSET 0 0 0
	 CHANNELS 3 XPosition YPosition Z Position
	 EndSite
	 {
	 OFFSET 0 -1 0
	 }
}
ROOT tt
{
	 OFFSET 0 0 0
	 CHANNELS 3 XPosition YPosition Z Position
	 EndSite
	 {
	 OFFSET 0 -1 0
	 }
}
ROOT tb
{
	 OFFSET 0 0 0
	 CHANNELS 3 XPosition YPosition Z Position
	 EndSite
	 {
	 OFFSET 0 -1 0
	 }
}
ROOT td
{
	 OFFSET 0 0 0
	 CHANNELS 3 XPosition YPosition Z Position
	 EndSite
	 {
	 OFFSET 0 -1 0
	 }
}
ROOT v
{
	 OFFSET 0 0 0
	 CHANNELS 3 XPosition YPosition Z Position
	 EndSite
	 {
	 OFFSET 0 -1 0
	 }
}
ROOT bn
{
	 OFFSET 0 0 0
	 CHANNELS 3 XPosition YPosition Z Position
	 EndSite
	 {
	 OFFSET 0 -1 0
	 }
}
MOTION
Frames: 16
Frame Time: 0.002
-0.0677183609008789	0.002990099906921387	0		0.5369793701171875	-2.5999716796875	0		-0.9429545288085938	0.06820991516113281	0		-0.3043709411621094	-3.168238037109375	0		1.6852108154296874	-1.4185870361328126	0		2.745410400390625	-0.16106817626953124	0		4.44334228515625	0.6812452392578126	0		6.02503369140625	0.5689697265625	0		-0.10931715393066406	5.9660126953125	0		
0.0172941837310791	0.004045001983642578	0		0.5400056762695312	-2.598862060546875	0		-1.0110195922851561	0.06421794891357421	0		-0.4011656188964844	-3.152855224609375	0		1.515267822265625	-1.41325341796875	0		2.767045166015625	-0.1891826171875	0		4.44224169921875	0.6744365844726562	0		6.02601025390625	0.56814697265625	0		-0.11217642211914063	5.98119287109375	0		
-0.031695199966430665	0.007856297016143798	0		0.5470691528320313	-2.592763671875	0		-0.9310327758789062	0.06537083435058594	0		-0.306156494140625	-3.151889892578125	0		1.7159996337890624	-1.43362890625	0		2.797076416015625	-0.18436239624023437	0		4.44226904296875	0.6796530151367187	0		6.03105078125	0.5743109130859375	0		-0.10929061126708985	5.97833837890625	0		
0.01918358612060547	0.0024298210144042967	0		0.5689046020507813	-2.60281494140625	0		-0.9450211791992188	0.07076865386962891	0		-0.38803997802734375	-3.139618408203125	0		1.589031005859375	-1.4267672119140624	0		2.765502685546875	-0.22471720886230467	0		4.429033203125	0.6660772705078125	0		6.02378955078125	0.5586697998046875	0		-0.14163880920410157	5.95897412109375	0		
-0.03289258193969727	0.002361764907836914	0		0.5698417358398438	-2.603556640625	0		-0.9441021118164062	0.07001651000976562	0		-0.31819436645507815	-3.148248291015625	0		1.5869093017578124	-1.4314635009765626	0		2.796357421875	-0.230827392578125	0		4.42587158203125	0.6594130859375	0		6.019603515625	0.5500293579101563	0		-0.09253338623046875	5.9756123046875	0		
0.02101634407043457	9.787819981575013E-4	0		0.5417745361328125	-2.603887939453125	0		-0.9382536010742187	0.06424124908447265	0		-0.38616525268554686	-3.141074951171875	0		1.597780029296875	-1.4362860107421875	0		2.802811767578125	-0.26758819580078125	0		4.402693359375	0.6520440063476562	0		6.012513671875	0.5494657592773438	0		-0.10679888916015624	5.9640986328125	0		
0.021932415008544922	3.1195899844169617E-4	0		0.5447329711914063	-2.6025771484375	0		-0.9322872924804687	0.06750399780273438	0		-0.33737310791015623	-3.1533564453125	0		1.536812744140625	-1.4281513671875	0		2.7947685546875	-0.2651221923828125	0		4.40343896484375	0.6384067993164062	0		6.0185283203125	0.5567734375	0		-0.10971700286865234	5.97948095703125	0		
0.025896408081054687	0.0026432249546051024	0		0.5207415771484375	-2.59788525390625	0		-0.9372974853515625	0.07194383239746094	0		-0.3771937255859375	-3.135467041015625	0		1.5535933837890625	-1.44097509765625	0		2.820030517578125	-0.3180494079589844	0		4.39928466796875	0.631869140625	0		6.01943798828125	0.5551820068359375	0		-0.10881684112548828	5.979849609375	0		
0.02379637336730957	-9.140440225601196E-4	0		0.5637055053710938	-2.598013671875	0		-0.9363599243164062	0.07134188079833985	0		-0.3422767028808594	-3.1394990234375	0		1.5563746337890625	-1.4545855712890625	0		2.817906982421875	-0.3235886535644531	0		4.37596533203125	0.6116091918945312	0		6.0121689453125	0.5387279052734375	0		-0.13919525146484374	5.957650390625	0		
-0.028252212524414063	-8.020660281181335E-4	0		0.516583984375	-2.60496142578125	0		-0.9354132690429687	0.07077181243896484	0		-0.3413093566894531	-3.140065185546875	0		1.5522421875	-1.4620751953125	0		2.824409423828125	-0.3592081604003906	0		4.37266650390625	0.5921259155273437	0		6.018201171875	0.5451383056640625	0		-0.10420005035400391	5.9636513671875	0		
0.02569384765625	-0.002012312889099121	0		0.5356267700195313	-2.59972265625	0		-0.93446337890625	0.07023101043701171	0		-0.3732716064453125	-3.135181884765625	0		1.553202392578125	-1.4625994873046875	0		2.82008203125	-0.38165835571289064	0		4.358359375	0.5718133544921875	0		6.01604638671875	0.536682861328125	0		-0.07301155090332032	5.98473193359375	0		
-0.026354473114013673	-0.0018443089723587036	0		0.494608642578125	-2.598691162109375	0		-1.0025745849609375	0.06559645080566406	0		-0.40015972900390623	-3.1243359375	0		1.5620701904296874	-1.4701971435546874	0		2.836546875	-0.42034646606445314	0		4.34004931640625	0.5515805053710937	0		6.0089775390625	0.5353200073242188	0		-0.10520569610595704	5.97664501953125	0		
0.03466799163818359	0.003909136056900024	0		0.5525234985351563	-2.602894775390625	0		-0.9185545043945312	0.07104978179931641	0		-0.3921095886230469	-3.11791064453125	0		1.5551092529296875	-1.4635660400390624	0		2.870472900390625	-0.42222723388671873	0		4.34857568359375	0.51903173828125	0		6.0189111328125	0.5347684326171875	0		-0.10431221008300781	5.97616259765625	0		
-0.0514785270690918	-0.0014416249990463258	0		0.5125463256835937	-2.59682763671875	0		-0.9316565551757813	0.068762451171875	0		-0.35822860717773436	-3.12379150390625	0		1.61082275390625	-1.481710693359375	0		2.831931396484375	-0.4591639404296875	0		4.32934326171875	0.5068628845214844	0		6.01493212890625	0.5424202270507813	0		-0.10538521575927734	5.979728515625	0		
0.03244210815429688	-9.343280196189881E-4	0		0.564350830078125	-2.606907958984375	0		-0.9307552490234375	0.06831807708740234	0		-0.4021196594238281	-3.109660400390625	0		1.6105206298828125	-1.4991202392578125	0		2.86746533203125	-0.4890203857421875	0		4.32991015625	0.48046337890625	0		6.0207275390625	0.5339694213867188	0		-0.10355744934082031	5.9772783203125	0		
-0.049699291229248044	-0.002296371936798096	0		0.5202028198242188	-2.610748291015625	0		-0.9298784790039063	0.0678931655883789	0		-0.35334722900390625	-3.12068994140625	0		1.60937255859375	-1.502498291015625	0		2.868978271484375	-0.5184237670898437	0		4.3194541015625	0.4542244567871094	0		6.018689453125	0.5406403198242188	0		-0.13399459838867187	5.956255859375	0		
